<svg xmlns="http://www.w3.org/2000/svg" xmlns:xlink="http://www.w3.org/1999/xlink" viewBox="0 0 897 1160" width="500" height="500">
  <!-- <defs>
    <style>
      .cls-1 {
        isolation: isolate;
      }

      .cls-2 {
        fill: none;
        fill-rule: evenodd;
      }
    </style>
  </defs> -->
  <g id="crown" data-name="Layer 2" class="cls-1" >
    <path class="cls-2" d="M198,828c-.7-6.6-3.63-6.44-4-14,11.77-13.07,10.76-52.92,16-74V726c6.52-26,8.23-53.53,17-78,5.39-15,12.75-31.28,17-46V582c1.95-6,17-24.59,22-28,7.8-5.28,13.37-6.38,20-13,19.63-19.61,40.65-38.14,66-52,9.95-5.44,20.87-6.88,32-11,40.71-15.05,96.8-25.74,151-26l1-3c-2.78-3.68-2.06-11.21-1-16,2.36-1.59,4.6-4.77,7-6,11.27-5.76,39.15-4.35,48,2,6.93,5,3.91,11.23,8,18,7.51,4.38,22.47,2.35,32,5,13.92,3.87,29.06,9.33,41,14,9.72,3.8,18.83,4.52,28,9,9.43,4.61,19.7,11.13,29,16,9.77,5.11,19.31,7.89,28,14,7.31,5.14,14,12.85,21,18,5,3.63,20.76,15.22,23,20,2,4.24-.24,7.83,2,11,2.58,3.65,9.9,4.24,12,8,1.59,2.85.46,5.5,2,8,2.2,3.57,7.33,6.11,9,10,1.39,3.24.32,5.39,2,8,2.09,3.24,6.59,6,8,10,9.07,25.56,13,54.26,20,82,2.59,10.21,1.79,21.17,4,30v52c0,25.32,3.44,58.23-2,80-2.83,11.31.3,26.91-2,36-3.18,12.59-.66,33.48-14,35-7.27,4.61-18.34.71-28,3-3.22.77-8.46,3.36-14,2-3.53-.87-10-3.52-16-2-8,2-21,2.11-29,0H741c-7.14-2.1-26.24-11-38-8-23.78,6-43.48,2-65-4-9-2.51-16.4-1.39-25-4-26.88-8.16-56.49-16-83-24-33.54-10.14-69.67-14.84-104-24H415c-7.21-1.92-18-4.14-25-6H379c-3.86-1.07-7.86-4.94-11-6-5.23-1.77-11.3,1.38-14,2-.37.09-33-3.3-35-4-3-1-5.62-5-9-6-12-3.5-25.48,1-38-2C249.7,824.56,220.15,827.84,198,828Z" />
  </g>
  <g id="visor" data-name="Layer 1" class="cls-1">
    <path class="cls-2" d="M210,826c8.23-.13,16.45.62,22,2,12.51,3.1,29.74-.54,40,2,13.55,3.36,25.05-1.5,38,2,4,1.09,6.56,4.85,10,6,3.82,1.27,11.16,1.29,14,2,3.31.82,18.52,2.27,20,2,3-.55,8.71-3.72,14-2,3.67,1.19,7.65,4.87,12,6,18.79,4.89,37.48,3,56,8,13.32,3.59,28.81,6.46,42,10l20,3c9.29,4,21.86,6.91,32,10l12,2c24,10.29,54.16,16,80,23,13.19,3.55,24.41,2.45,38,6,3,.79,7,3.23,10,4,10.74,2.73,25.76-2,34-4,8-2,17.32,1.68,24,3a21.58,21.58,0,0,1,1,7c-4.5,3-5.46,8-9,12-5.88,6.55-14.76,10.76-21,17-7.31,7.31-12.38,17-20,24-9.17,8.4-20.54,13.88-30,22-20.38,17.49-41.44,38.25-65,52-14.11,8.23-30.7,13.41-46,20-6.58,2.83-12.29,1.08-20,3-29.71,7.4-76,1-102-8-12.28-4.25-23.7-4.51-36-9-17-6.23-36.88-14.35-53-22-8.18-3.88-17.08-2.46-25-6a714.29,714.29,0,0,0-112-39H172c-13-3.18-39-5.86-52-2-2.37.71-5.35,3.28-8,4-11.93,3.25-25.53.93-36,5-3.79,1.47-18,7.35-21,10-7.66,6.84-3,8.94-19,9-1-.8-.27-.35-2-1-1.71-2.73-2.54-2.5-3-7-.83-1.66-.24-2.59,0-6,7.1-4.79,12-13,18-19s13.47-10.19,20-16c1-.86,1.06-3.07,2-4,4.36-4.32,9.66-7.66,14-12,2.29-2.29,3.62-5.82,6-8,2.88-2.63,7.06-3.39,10-6,2.39-2.13,3.72-5.72,6-8,9.67-9.67,20.33-18.33,30-28,4.95-5,8.84-11.28,14-16,2.88-2.63,7.06-3.39,10-6,3.09-2.76,5.06-7.06,8-10s7.24-4.91,10-8,3.38-7.11,6-10c2.42-2.67,6.18-4.71,8-8l1-5c1.45-1.63,4.45-2.36,6-4C204.17,828.07,207.69,827.75,210,826Z"/>
  </g>
  <g id="shadow" data-name="shadow Image">
    <image id="shadow_Image-2" data-name="shadow Image" width="842" height="666" transform="translate(24 416)" xlink:href="double-red-airtech-mesh-3d-logo-cap-allwhite%20-%20Copy1.png"/>
  </g>
</svg>
