<svg xmlns="http://www.w3.org/2000/svg" xmlns:xlink="http://www.w3.org/1999/xlink" viewBox="0 0 1200 630" width ="700" height="700">
  <!-- <g id="Image" data-name="Layer 0 Image">
    <image id="Layer_0_Image-2" data-name="Layer 0 Image" width="1200" height="630" xlink:href="shoe1.png"/>
  </g> -->
  <g id="sole" >
    <path d="M24,602c.33-2,.67-4,1-6-5.58-4-5.53-7.44-9-14-1.57-3-6.75-4.5-8-8-2.58-7.24-1.3-16.61,0-22,2.17-9-3.38-17.31-2-24,.55-2.67,3.33-5.65,4-8,1.39-4.89,1.11-12.34,2-16V481c0-11.28.84-15.63,3-23,1.47-5-.94-11.15,0-16l3-1c2.35-1.31,11.26-.2,16,1,14,3.56,31.3,3.3,50,4,7.09.27,17.71,2.46,24,4,7.75,1.9,18.35.66,24,2,5,1.19,9.11-1.3,12-2h28c25.75,0,52,2,80,2,18.24,0,30.66,2,49,2h15c9.81-2.36,36.18-1.37,50,2,11.32,2.76,26.92-.22,36,2h24c8.13.82,24.18,2.09,32,4h24c29.51,7.3,65.2,8.71,94,16,6,0,21,2,27,2,14.68,3.61,23.88,3.29,39,7,6.66,1.64,16.34-.14,21,1,4.67,0,13.33,2,18,2a97.64,97.64,0,0,1,20,2c7.33,0,17.67,1,25,1,7.92,1.91,22.86,1.56,33,4,31.31,7.53,66.43-3,99-3,16.89,0,39.37-.43,54-4h28c3.66-.91,10.34-3.1,14-4h16c15.31-3.78,35.34-4.4,50-8h16c13.41-3.31,28.87-4.75,42-8h10c8.53-2.19,21.15-5.75,30-8,11.41-2.9,21.76-1.33,32-5,5.76-2.07,18-11.37,22-10,10,3.6,4.38,11.12,9,20,.77,1.47,4.34,3.38,5,5v10c9.59,38.75,2.28,67.47-19,88-3.41,3.29-8.82,3.34-13,6-7.26,4.61-16.45,9.51-26,12-12.69,3.31-24.12,2-36,6-3.91,1.33-9.15,4.79-14,6h-16c-12.4,3-28.15,5.08-40,8-2.83.7-26.59,2.43-28,2-1.12-.34-.93-2.93-4-2-.93.28-2.71,3.57-4,4-6.89,2.32-11.34-3.93-15-3-1.32.34-3.27,4.4-5,5-6.22,2.14-10.38-2.57-13-3-3-.48-3.54,2.46-5,3l-17-1c-.73.22-2.52,2.82-3,3-7.18,2.71-13.4-3.91-17-3l-3,4c-2.71,1.57-7.87,1-12,1a10.43,10.43,0,0,0-6-4c-5.56,7-12.43,1.26-20,2-3.28.32-8.33,3.33-14,2-1.19-.28-4.15-2.33-6-2-1.51.27-4.5,3.53-6,4-7.14,2.22-10.35-3.5-14-4-3.06-.42-4.21,3.3-6,4-5.07,2-11.2-1.63-14-2-1.91-.25-4.76,1.7-6,2-6.45,1.55-12.77-2.36-16-1-2.55,1.35-2.64,4.21-4,5H590c-6-4.18-22.51-2-32-2H470c-21.89-5.29-54.59-2-80-2H164c-3-.76-7-3.23-10-4H144c-.43-.16-2.31-2.89-3-3-3-.47-3.53,2.47-5,3s-22.88.28-24,0c-3.1-.76-5.66-4.45-8-5-3.72-.88-4.28,2.36-6,3H78c-9.21-2.25-23.1-1.82-32-5C38,606.13,33.35,601.15,24,602Z"/>
  </g>
  <g id="front" >
    <path d="M1173,449c-9.08.6-12.86,6.39-20,9-10.49,3.83-20,1.95-32,5-9.31,2.37-21.34,5.77-30,8h-18c-16.24,4.07-36.48,5.63-54,10-12,3-21.76-1-34,2-13.11,3.25-29.67,4.92-42,8-14,0-25,1-39,1-9.34.9-19.44.64-36,4-8,0-20,2-28,2-22.43,5.46-39.32,2.9-77,1-12.67,0-28.33-4-41-4-9.43-2.35-23.93.25-33-2-12.07-3-25.93,1-38-2-17-4.26-35-4.76-52-9-7.33,0-16.67-3-24-3l-12-4a18.26,18.26,0,0,1-1-6c6-4.16,9.66-12.05,14-18,4.8-6.59,12.63-11,18-17,5.18-5.81,8.55-12.55,14-18,6.13-6.13,13.47-10.19,20-16,1.69-1.5,2.39-4.39,4-6,4.78-4.77,10.9-7.46,16-12,2.37-2.11,3.66-5.86,6-8,10.86-9.93,24.23-17,34-28,4.63-5.2,15.06-21.71,18-28,4.67-10-1-13.73,7-23,9.18,1.75,17.74,6.09,26,9l12,1c13.74,3.65,31,9.1,40,18-.15,10.62-3.45,33.78-7,42-.62,1.45-2.7,6.46-3,7-3.6,6.46,3.15,25.95,5,28,13.06,14.45,45.92,15,73,15h28c41.46-9.08,94.43-.35,134-10,12.07-2.94,21.74,1,34-2,14.11-3.47,30.92-4.17,44-9,10.9-4,21.2-11.84,34-13,3.06,2.94,8,4,11,7,3.88,3.88,18.06,25.84,20,31,2.92,7.76,2.31,14.27,5,22C1170.12,444.23,1172.17,444.9,1173,449Z" />
  </g>
  <g id="back" >
    <path d="M72,144c.83,3.25-.49,1.53,2,3,1.49-1.66.72-1,2-1h1c-5.7,11.79,10.82,28.25,16,36,2.58,3.85,1.71,8.52,4,13,1.68,3.29,6.15,5.92,8,9,4.24,7.07,4.74,15.15,10,21,10.58,11.75,28.61,16,41,26-4.16,3.46-7,8.48-11,12-5.72,5-18,9-25,12-6.59,2.79-16.16-.92-24,1-5.64,1.38-15.43,2.23-21,5-16.48,8.2-24.23,23.13-36,36-3.77,4.12-9.14,6.95-13,11H16a210.56,210.56,0,0,1,6-56c0-5.33,2-9.67,2-15,1.2-3.67,2.89-8.64,4-13V226c.53-1.64,3.47-6.36,4-8,0-3.33,1-6.67,1-10,.93-3.66,2.09-10.33,3-14v-8c1-2.72,5-7.28,6-10v-8c2.44-9.42,5.33-23.9,14-27C61.36,137.54,66.85,143.21,72,144Z" />
  </g>
  <g id="logo">
    <path d="M515,232c5.68-.57,25.94,6.05,35,12,3.93,2.58,9.53,5.95,13,9,2.37,2.08,5.64,4.9,8,7,7.66,6.82,12,9.69,18,18,1.81,2.5,6,8.67,8,11a35.4,35.4,0,0,1,4,6c.67,3,3.33,5,4,8,1,1.92,3.28,9.73,4,12,4.42,13.89,5.44,37.26-1,46,0-.67-2,3.67-2,3-.67,0,.67-1,0-1v1c-3.18,3.06-9.23,9.48-14,13a115.65,115.65,0,0,1-34,17c-3.1.86-8.33,2-11,2-30.48,8-73.6.45-103-7-3.33,0-8.82-1.53-14-3-10.65-2.86-25.27-7.1-36-10-4.67-.33-16.33-4.67-21-5-18-5.14-25.54-5.74-43-12-4.67-.67-15.33-3.33-20-4-8.15-2.93-19-5.65-27-8-24.45-7.17-23.37-5.76-35-10-14.62-5.33-32.7-10.33-48-16-29.62-11-65.91-17.88-92-28-10.37-4-16.73-2.83-33-11-2.18-1.18,7.67-2,8-2v-1c4.52-.55,11.47-1.1,15-2,6.67,0,13.33-1,20-1,10.23-2.92,15.79-9.82,28-7,62.63,14.48,126.82,27,188,43,4,0,15,3,19,3,13.31,3.36,23.5,3.56,37,7h12c37,9.11,90.18,8.58,111-15,2.84-3.21,5-5.58,7-10,.6-1.35,1.55-5.38,2-7,3.18-11.35,3.1-13.6,3-21a96.73,96.73,0,0,0-1-14C522.49,242.81,515.75,235.51,515,232Z" />
  </g>
  <g id="shadows_Image" data-name="shadows Image">
    <image id="shadows_Image-2" data-name="shadows Image" width="1200" height="624" xlink:href="shoe2.png"/>
  </g>
  <g id="shadows2_Image" data-name="shadows2 Image">
    <image id="shadows2_Image-2" data-name="shadows2 Image" width="1200" height="617" transform="translate(0 3)" xlink:href="shoe3.png"/>
  </g>
</svg>
